<?xml version="1.0" encoding="UTF-8" standalone="no" ?>
<!DOCTYPE svg PUBLIC "-//W3C//DTD SVG 1.1//EN" "http://www.w3.org/Graphics/SVG/1.1/DTD/svg11.dtd">
<svg xmlns="http://www.w3.org/2000/svg" xmlns:xlink="http://www.w3.org/1999/xlink" version="1.1" width="1080" height="1080" viewBox="0 0 1080 1080" xml:space="preserve">
<desc>Created with Fabric.js 5.2.4</desc>
<defs>
</defs>
<g transform="matrix(1 0 0 1 540 540)" id="38a0d657-a773-4d6b-8297-cff86e3b400e"  >
<rect style="stroke: none; stroke-width: 1; stroke-dasharray: none; stroke-linecap: butt; stroke-dashoffset: 0; stroke-linejoin: miter; stroke-miterlimit: 4; fill: rgb(255,255,255); fill-rule: nonzero; opacity: 1; visibility: hidden;" vector-effect="non-scaling-stroke"  x="-540" y="-540" rx="0" ry="0" width="1080" height="1080" />
</g>
<g transform="matrix(1 0 0 1 540 540)" id="0c0c55c9-7df0-4f36-a13e-35c723184795"  >
</g>
<g transform="matrix(2.08 0 0 2.08 -1300.47 476.29)"  >
<g style="" vector-effect="non-scaling-stroke"   >
		<g transform="matrix(4.88 0 0 4.88 -378.14 24.69)"  >
<path style="stroke: none; stroke-width: 1; stroke-dasharray: none; stroke-linecap: butt; stroke-dashoffset: 0; stroke-linejoin: miter; stroke-miterlimit: 4; fill: rgb(112,112,111); fill-rule: nonzero; opacity: 1;" vector-effect="non-scaling-stroke"  transform=" translate(-178.6, -72.9)" d="M 347.7 88.3 C 345.7 89.6 343.59999999999997 90.3 341.59999999999997 90.3 C 340.09999999999997 90.3 338.9 89.7 337.9 88.5 C 337 87.3 336.5 85.8 336.5 83.9 C 336.5 81.10000000000001 337.2 77.4 338.6 72.7 L 342.6 59.1 L 352 58.4 L 354 49.099999999999994 L 345.5 49.599999999999994 L 351.8 28.599999999999994 L 335.6 31.899999999999995 L 329.90000000000003 50.8 L 324.1 51 L 322.20000000000005 60.5 L 326.80000000000007 60.3 L 324.20000000000005 69.5 C 323.00000000000006 73.6 322.1 77.2 321.6 80.4 C 316.8 85.30000000000001 313.20000000000005 88.4 310.8 89.80000000000001 C 308.40000000000003 91.20000000000002 305.8 91.9 303.2 91.9 C 296.4 91.9 292.2 88 290.59999999999997 80.10000000000001 C 308.29999999999995 74.9 317.2 68.10000000000001 317.2 59.80000000000001 C 317.2 56.70000000000001 316.09999999999997 54.10000000000001 313.8 52.20000000000001 C 311.5 50.30000000000001 308.5 49.30000000000001 304.8 49.30000000000001 C 297.6 49.30000000000001 291 52.80000000000001 285.1 59.70000000000001 C 279.70000000000005 66.00000000000001 276.8 72.9 276.3 80.60000000000001 C 271.40000000000003 85.4 267.7 88.60000000000001 265.3 90.10000000000001 C 262.8 91.7 260.5 92.50000000000001 258.3 92.50000000000001 C 256.2 92.50000000000001 254.4 91.50000000000001 253.20000000000002 89.40000000000002 C 251.9 87.30000000000003 251.3 84.60000000000002 251.3 81.10000000000002 C 251.3 79.50000000000003 251.5 76.60000000000002 251.8 72.50000000000003 C 259.90000000000003 63.800000000000026 265.8 55.50000000000003 269.6 47.800000000000026 C 273.40000000000003 40.10000000000002 275.3 32.10000000000002 275.3 23.900000000000027 C 275.3 21.00000000000003 274.90000000000003 18.700000000000028 274.2 17.00000000000003 C 273.5 15.30000000000003 272.5 14.400000000000029 271.3 14.400000000000029 C 271.1 14.400000000000029 270.7 14.500000000000028 270.2 14.600000000000028 L 254.8 20 C 249.60000000000002 30 245.10000000000002 40.9 241.4 52.8 C 238.1 63.5 236.3 72.9 236 80.8 C 229.6 88.5 223.7 92.3 218.3 92.3 C 214.4 92.3 211.4 90.2 209.4 86 L 214.5 60.7 C 222.8 53 228.4 46.6 231.4 41.400000000000006 C 234.4 36.2 235.9 30.700000000000006 235.9 25.100000000000005 C 235.9 21.800000000000004 235.4 19.200000000000003 234.4 17.200000000000003 C 233.4 15.200000000000003 232.20000000000002 14.200000000000003 230.70000000000002 14.200000000000003 C 230.50000000000003 14.200000000000003 229.00000000000003 14.600000000000003 226.20000000000002 15.300000000000002 C 223.4 16.000000000000004 220.70000000000002 16.800000000000004 218.20000000000002 17.500000000000004 C 215.70000000000002 18.300000000000004 214.20000000000002 19.100000000000005 213.50000000000003 20.000000000000004 C 212.90000000000003 20.900000000000002 211.30000000000004 24.200000000000003 208.80000000000004 30.1 C 206.30000000000004 36 204.40000000000003 41.3 203.10000000000005 46.2 C 201.70000000000005 51 199.90000000000006 58.900000000000006 197.80000000000004 69.7 L 187.70000000000005 80.2 L 187.70000000000005 80.10000000000001 C 184.30000000000004 83.50000000000001 181.60000000000005 86.10000000000001 179.70000000000005 87.7 C 177.80000000000004 89.4 176.10000000000005 90.2 174.50000000000006 90.2 C 172.00000000000006 90.2 170.80000000000007 88.5 170.80000000000007 85 C 170.80000000000007 81.7 172.20000000000007 75.6 174.90000000000006 66.7 L 180.20000000000007 49 L 176.80000000000007 49 L 164.40000000000006 55.8 C 162.40000000000006 51.199999999999996 158.90000000000006 48.8 153.80000000000007 48.8 C 149.80000000000007 48.8 145.20000000000007 50.5 140.00000000000006 53.9 C 134.80000000000007 57.3 130.50000000000006 61.699999999999996 127.20000000000006 67.2 C 124.60000000000007 71.5 123.00000000000006 75.9 122.50000000000006 80.5 C 117.90000000000006 85.1 114.40000000000006 88.2 112.00000000000006 89.6 C 109.60000000000005 91 107.00000000000006 91.69999999999999 104.40000000000006 91.69999999999999 C 97.60000000000007 91.69999999999999 93.40000000000006 87.79999999999998 91.80000000000007 79.89999999999999 C 109.50000000000007 74.69999999999999 118.40000000000006 67.89999999999999 118.40000000000006 59.599999999999994 C 118.40000000000006 56.49999999999999 117.30000000000007 53.89999999999999 115.00000000000006 51.99999999999999 C 112.70000000000006 50.099999999999994 109.70000000000006 49.099999999999994 106.00000000000006 49.099999999999994 C 98.80000000000005 49.099999999999994 92.20000000000006 52.599999999999994 86.30000000000005 59.49999999999999 C 80.90000000000005 65.8 78.00000000000006 72.8 77.50000000000006 80.5 C 71.60000000000005 87 65.40000000000006 90.3 58.900000000000055 90.3 C 55.50000000000006 90.3 51.50000000000006 89.39999999999999 46.800000000000054 87.6 C 42.10000000000005 85.8 38.50000000000006 84.6 36.00000000000006 83.89999999999999 C 33.50000000000006 83.3 30.500000000000057 83.1 27.10000000000006 83.3 C 32.400000000000055 77.8 35.90000000000006 72.2 37.90000000000006 66.5 C 39.80000000000006 60.8 41.20000000000006 54.3 42.000000000000064 46.9 C 42.80000000000006 39.5 43.600000000000065 34.2 44.30000000000006 30.9 C 45.000000000000064 27.599999999999998 46.30000000000006 24.799999999999997 48.10000000000006 22.4 C 49.900000000000055 20 52.50000000000006 18.799999999999997 55.80000000000006 18.799999999999997 C 58.500000000000064 18.799999999999997 60.70000000000006 19.799999999999997 62.30000000000006 21.799999999999997 C 63.90000000000006 23.799999999999997 64.70000000000006 26.499999999999996 64.70000000000006 29.999999999999996 C 64.70000000000006 34.5 63.70000000000006 38.4 61.60000000000006 41.699999999999996 C 59.50000000000006 44.99999999999999 57.10000000000006 46.599999999999994 54.400000000000055 46.599999999999994 C 52.70000000000005 46.599999999999994 51.400000000000055 45.99999999999999 50.300000000000054 44.699999999999996 C 49.800000000000054 46.4 49.60000000000005 47.8 49.60000000000005 49.099999999999994 C 49.60000000000005 51.49999999999999 50.300000000000054 53.39999999999999 51.800000000000054 54.8 C 53.300000000000054 56.199999999999996 55.20000000000005 56.9 57.800000000000054 56.9 C 62.70000000000005 56.9 67.00000000000006 54.5 70.70000000000006 49.8 C 74.40000000000006 45 76.30000000000005 39.5 76.30000000000005 33.199999999999996 C 76.30000000000005 27.699999999999996 74.50000000000006 23.199999999999996 70.90000000000005 19.699999999999996 C 67.30000000000005 16.199999999999996 62.80000000000005 14.399999999999995 57.200000000000045 14.399999999999995 C 49.100000000000044 14.399999999999995 41.600000000000044 18.399999999999995 34.700000000000045 26.499999999999993 C 27.800000000000047 34.49999999999999 24.000000000000046 45.69999999999999 23.300000000000047 59.89999999999999 C 22.90000000000005 66.8 22.40000000000005 71.69999999999999 21.800000000000047 74.69999999999999 C 21.200000000000045 77.69999999999999 19.700000000000045 80.79999999999998 17.40000000000005 83.89999999999999 C 11.900000000000048 84.8 7.700000000000049 86.39999999999999 4.700000000000049 88.69999999999999 C 1.700000000000049 90.99999999999999 0.20000000000004903 93.69999999999999 0.20000000000004903 96.79999999999998 C 0.20000000000004903 98.29999999999998 0.700000000000049 99.49999999999999 1.700000000000049 100.49999999999999 C 2.700000000000049 101.49999999999999 4 102 5.5 102 C 9.9 102 14.8 99 20.3 93.1 C 23.2 93.89999999999999 26.6 95.19999999999999 30.5 97 C 34.3 98.8 37.6 100 40.3 100.8 C 43 101.5 45.8 101.89999999999999 48.699999999999996 101.89999999999999 C 58.699999999999996 101.89999999999999 68.39999999999999 97.1 78 87.39999999999999 C 78.7 91.1 80.2 94.3 82.7 96.8 C 86.10000000000001 100.3 90.5 102.1 96 102.1 C 100.9 102.1 105.4 100.89999999999999 109.5 98.5 C 113.4 96.2 117.8 92.6 122.7 87.9 C 123.10000000000001 91.4 124.3 94.5 126.2 97.10000000000001 C 128.7 100.4 131.7 102.10000000000001 135.2 102.10000000000001 C 138.79999999999998 102.10000000000001 142.29999999999998 100.7 145.79999999999998 98.00000000000001 C 149.2 95.30000000000001 152.89999999999998 91.00000000000001 156.99999999999997 85.20000000000002 C 156.59999999999997 96.40000000000002 159.59999999999997 102.10000000000002 165.99999999999997 102.10000000000002 C 168.49999999999997 102.10000000000002 171.19999999999996 101.20000000000002 173.99999999999997 99.30000000000003 C 176.79999999999998 97.40000000000003 181.39999999999998 93.50000000000003 187.79999999999998 87.30000000000003 L 191.89999999999998 82.80000000000003 C 192.99999999999997 85.90000000000002 193.79999999999998 87.80000000000003 194.29999999999998 88.60000000000002 C 191.1 106.20000000000002 188.89999999999998 120.50000000000003 187.6 131.60000000000002 C 193.5 130.40000000000003 198.5 129.60000000000002 202.7 129.00000000000003 C 204 118.70000000000003 205.5 109.20000000000003 207.2 100.30000000000003 C 209.89999999999998 101.50000000000003 212 102.00000000000003 213.5 102.00000000000003 C 216.7 102.00000000000003 220.4 100.70000000000003 224.5 98.20000000000003 C 228.5 95.70000000000003 232.5 92.20000000000003 236.6 87.70000000000003 C 237.1 91.40000000000003 238.29999999999998 94.50000000000003 240.29999999999998 97.00000000000003 C 242.89999999999998 100.30000000000003 246.39999999999998 102.00000000000003 250.7 102.00000000000003 C 254.39999999999998 102.00000000000003 258.4 100.80000000000003 262.5 98.40000000000003 C 266.6 96.00000000000003 271.4 92.30000000000004 276.9 87.20000000000003 C 277.59999999999997 91.00000000000003 279.09999999999997 94.10000000000004 281.59999999999997 96.70000000000003 C 284.99999999999994 100.20000000000003 289.4 102.00000000000003 294.9 102.00000000000003 C 299.79999999999995 102.00000000000003 304.29999999999995 100.80000000000003 308.4 98.40000000000003 C 312.29999999999995 96.10000000000004 316.7 92.50000000000003 321.59999999999997 87.80000000000004 C 321.79999999999995 91.80000000000004 322.9 95.10000000000004 324.79999999999995 97.60000000000004 C 326.99999999999994 100.50000000000004 329.79999999999995 102.00000000000004 333.19999999999993 102.00000000000004 C 336.49999999999994 102.00000000000004 340.0999999999999 100.80000000000004 343.79999999999995 98.40000000000005 C 347.49999999999994 96.00000000000004 351.9 92.30000000000005 356.99999999999994 87.20000000000005 L 356.99999999999994 80.20000000000005 C 352.69999999999993 84.20000000000005 349.69999999999993 87.00000000000004 347.69999999999993 88.30000000000004 z M 261.79999999999995 32.199999999999996 C 264.59999999999997 24.799999999999997 266.79999999999995 21.099999999999994 268.29999999999995 21.099999999999994 C 268.99999999999994 21.099999999999994 269.49999999999994 21.599999999999994 269.99999999999994 22.499999999999993 C 270.3999999999999 23.39999999999999 270.69999999999993 24.599999999999994 270.69999999999993 26.099999999999994 C 270.69999999999993 31.199999999999996 269.0999999999999 37.3 265.8999999999999 44.3 C 262.69999999999993 51.4 258.5999999999999 57.699999999999996 253.39999999999992 63.4 C 256.0999999999999 50 258.8999999999999 39.599999999999994 261.7999999999999 32.2 z M 222.69999999999996 27.399999999999995 C 224.49999999999997 22.799999999999997 226.29999999999995 20.399999999999995 228.09999999999997 20.399999999999995 C 228.99999999999997 20.399999999999995 229.79999999999995 20.899999999999995 230.39999999999998 21.999999999999996 C 230.99999999999997 23.099999999999998 231.29999999999998 24.499999999999996 231.29999999999998 26.199999999999996 C 231.29999999999998 30.199999999999996 229.99999999999997 34.599999999999994 227.29999999999998 39.3 C 224.6 44 220.89999999999998 48.5 216.2 52.599999999999994 C 218.7 40.39999999999999 220.89999999999998 31.999999999999993 222.7 27.399999999999995 z M 102.5 54 C 105.3 54 106.7 55.9 106.7 59.8 C 106.7 67.6 101.5 73 91.2 75.9 C 91.2 69.4 92.4 64.10000000000001 94.8 60.10000000000001 C 97.2 56.10000000000001 99.8 54.00000000000001 102.5 54.00000000000001 z M 154.7 80.1 C 151.1 87 147.29999999999998 90.39999999999999 143.29999999999998 90.39999999999999 C 141.6 90.39999999999999 140.29999999999998 89.69999999999999 139.2 88.39999999999999 C 138.1 87.1 137.6 85.3 137.6 83.1 C 137.6 77.3 139.4 71 143 64.19999999999999 C 146.6 57.29999999999999 150.4 53.89999999999999 154.5 53.89999999999999 C 156.2 53.89999999999999 157.5 54.49999999999999 158.6 55.79999999999999 C 159.6 57.09999999999999 160.1 58.79999999999999 160.1 61.09999999999999 C 160 66.89999999999999 158.2 73.19999999999999 154.7 80.1 z M 301.3 54 C 304.1 54 305.5 55.9 305.5 59.8 C 305.5 67.6 300.3 73 290 75.9 C 290 69.4 291.2 64.10000000000001 293.6 60.10000000000001 C 296.1 56.00000000000001 298.70000000000005 54.00000000000001 301.3 54.00000000000001 z" stroke-linecap="round" />
</g>
		<g transform="matrix(4.88 0 0 4.88 699.54 93.6)"  >
<linearGradient id="SVGID_a_3" gradientUnits="objectBoundingBox" gradientTransform="matrix(1 0 0 1 0 0)"  x1="-0.06234" y1="0.45374000000000003" x2="1.03068" y2="0.58975">
<stop offset="0%" style="stop-color:rgb(138,196,67);stop-opacity: 1"/>
<stop offset="100%" style="stop-color:rgb(117,184,67);stop-opacity: 1"/>
</linearGradient>
<path style="stroke: none; stroke-width: 1; stroke-dasharray: none; stroke-linecap: butt; stroke-dashoffset: 0; stroke-linejoin: miter; stroke-miterlimit: 4; fill: url(#SVGID_a_3); fill-rule: nonzero; opacity: 1;" vector-effect="non-scaling-stroke"  transform=" translate(-399.33, -87.01)" d="M 377.4 54.3 C 378.7 55.8 403.4 64 411.9 74 C 420.5 84 424.2 92.9 423 101.5 C 421.8 110.1 416.5 109.9 414.3 113.1 C 412 116.19999999999999 408.8 120.1 402.8 119.69999999999999 C 394.8 119.19999999999999 386.6 115.19999999999999 380.7 101.39999999999999 C 374.8 87.6 375.2 74.6 375.7 67.39999999999999 C 376.09999999999997 60.099999999999994 377.4 54.29999999999999 377.4 54.29999999999999 z" stroke-linecap="round" />
</g>
		<g transform="matrix(4.88 0 0 4.88 686.21 84.5)"  >
<linearGradient id="SVGID_b_4" gradientUnits="objectBoundingBox" gradientTransform="matrix(1 0 0 1 0 0)"  x1="-0.10801000000000001" y1="0.43538" x2="1.10996" y2="0.56986">
<stop offset="0%" style="stop-color:rgb(117,184,67);stop-opacity: 1"/>
<stop offset="100%" style="stop-color:rgb(75,151,68);stop-opacity: 1"/>
</linearGradient>
<path style="stroke: none; stroke-width: 1; stroke-dasharray: none; stroke-linecap: butt; stroke-dashoffset: 0; stroke-linejoin: miter; stroke-miterlimit: 4; fill: url(#SVGID_b_4); fill-rule: nonzero; opacity: 1;" vector-effect="non-scaling-stroke"  transform=" translate(-396.6, -85.15)" d="M 378.1 56.6 L 415.1 111.80000000000001 L 413.40000000000003 113.70000000000002 L 378.1 56.600000000000016 z" stroke-linecap="round" />
</g>
		<g transform="matrix(4.88 0 0 4.88 576.61 193.7)"  >
<path style="stroke: none; stroke-width: 1; stroke-dasharray: none; stroke-linecap: butt; stroke-dashoffset: 0; stroke-linejoin: miter; stroke-miterlimit: 4; fill: rgb(61,61,60); fill-rule: nonzero; opacity: 1;" vector-effect="non-scaling-stroke"  transform=" translate(-374.15, -107.52)" d="M 236.4 133.3 L 236.70000000000002 130.9 C 246.60000000000002 125.60000000000001 258.8 123.60000000000001 268.8 118.5 C 271.8 119.8 273.1 117.9 276.3 118.1 C 277.5 119.1 274.8 120.5 278 120.3 C 285.1 121.2 292.1 119.89999999999999 299.1 119.3 C 306.5 118.7 313.8 119.39999999999999 321.1 118.89999999999999 C 323.40000000000003 118.8 327 115.6 329.8 117.19999999999999 C 331.1 119.49999999999999 325.6 119.69999999999999 327.1 122.29999999999998 C 341.6 125.69999999999999 377.90000000000003 140.1 384.1 124.39999999999998 C 384.20000000000005 125.39999999999998 383 127.19999999999997 384.70000000000005 126.99999999999997 C 396.90000000000003 121.49999999999997 417.70000000000005 109.69999999999997 421.40000000000003 106.59999999999997 C 425.40000000000003 103.19999999999996 430.8 103.29999999999997 436.00000000000006 102.09999999999997 C 445.50000000000006 99.89999999999996 455.6000000000001 97.69999999999996 463.80000000000007 92.89999999999996 C 468.9000000000001 96.39999999999996 479.50000000000006 98.19999999999996 485.1000000000001 96.89999999999996 C 491.00000000000006 95.59999999999997 500.2000000000001 85.79999999999997 505.1000000000001 82.29999999999997 C 507.00000000000006 80.89999999999996 509.9000000000001 78.29999999999997 511.9000000000001 79.79999999999997 C 510.5000000000001 80.79999999999997 512.1000000000001 83.59999999999997 510.4000000000001 83.09999999999997 C 509.5000000000001 81.39999999999996 507.7000000000001 83.39999999999996 506.4000000000001 82.99999999999997 C 501.5000000000001 87.09999999999997 496.30000000000007 90.89999999999998 491.30000000000007 94.79999999999997 C 488.9000000000001 96.19999999999997 493.6000000000001 97.69999999999997 490.80000000000007 98.19999999999997 C 477.80000000000007 100.79999999999997 457.9000000000001 94.29999999999997 449.70000000000005 103.29999999999997 C 436.70000000000005 107.79999999999997 424.40000000000003 108.89999999999996 411.6 115.79999999999997 C 404.20000000000005 119.79999999999997 395.20000000000005 126.99999999999997 387.5 130.79999999999995 C 386.2 131.39999999999995 384.3 131.69999999999996 382.8 132.59999999999997 C 380.90000000000003 133.69999999999996 380.5 135.19999999999996 378.90000000000003 135.49999999999997 C 375.00000000000006 136.29999999999998 366.90000000000003 134.29999999999998 361.70000000000005 133.59999999999997 C 344.70000000000005 131.09999999999997 326.50000000000006 124.19999999999996 310.40000000000003 123.29999999999997 C 304.00000000000006 122.99999999999997 296.50000000000006 123.99999999999997 289.3 124.29999999999997 C 274 124.99999999999997 264.5 125.39999999999996 252.20000000000002 129.49999999999997 C 247.4 131.19999999999996 239.60000000000002 135.69999999999996 236.4 133.29999999999998 z" stroke-linecap="round" />
</g>
		<g transform="matrix(4.88 0 0 4.88 922.82 -47.34)"  >
<linearGradient id="SVGID_c_5" gradientUnits="objectBoundingBox" gradientTransform="matrix(1 0 0 1 0 0)"  x1="1.0851000000000002" y1="0.41458" x2="-0.03274" y2="0.65747">
<stop offset="0%" style="stop-color:rgb(193,219,116);stop-opacity: 1"/>
<stop offset="100%" style="stop-color:rgb(172,210,89);stop-opacity: 1"/>
</linearGradient>
<path style="stroke: none; stroke-width: 1; stroke-dasharray: none; stroke-linecap: butt; stroke-dashoffset: 0; stroke-linejoin: miter; stroke-miterlimit: 4; fill: url(#SVGID_c_5); fill-rule: nonzero; opacity: 1;" vector-effect="non-scaling-stroke"  transform=" translate(-445.06, -58.15)" d="M 472.6 0 C 470.90000000000003 2.8 431.70000000000005 23 420 41.9 C 408.2 60.9 404.9 75.8 409.2 89.8 C 413.5 103.8 421.59999999999997 103.2 426.2 107.8 C 430.8 112.39999999999999 437.09999999999997 118 447.2 115.8 C 460.4 112.8 473.09999999999997 104 479.4 79.4 C 485.7 54.800000000000004 481.59999999999997 33.2 478.9 21.300000000000004 C 476.2 9.4 472.6 0 472.6 0 z" stroke-linecap="round" />
</g>
		<g transform="matrix(4.88 0 0 4.88 937.9 -55.38)"  >
<linearGradient id="SVGID_d_6" gradientUnits="objectBoundingBox" gradientTransform="matrix(1 0 0 1 0 0)"  x1="1.2907300000000002" y1="0.38386000000000003" x2="-0.25413" y2="0.61919">
<stop offset="0%" style="stop-color:rgb(172,210,89);stop-opacity: 1"/>
<stop offset="100%" style="stop-color:rgb(138,196,67);stop-opacity: 1"/>
</linearGradient>
<path style="stroke: none; stroke-width: 1; stroke-dasharray: none; stroke-linecap: butt; stroke-dashoffset: 0; stroke-linejoin: miter; stroke-miterlimit: 4; fill: url(#SVGID_d_6); fill-rule: nonzero; opacity: 1;" vector-effect="non-scaling-stroke"  transform=" translate(-448.15, -56.5)" d="M 471.9 4.2 L 424.4 106 L 427.2 108.8 L 471.9 4.2 z" stroke-linecap="round" />
</g>
</g>
</g>
</svg>